<svg xmlns="http://www.w3.org/2000/svg" xmlns:xlink="http://www.w3.org/1999/xlink" width="500" zoomAndPan="magnify" viewBox="0 0 375 374.999991" height="500" preserveAspectRatio="xMidYMid meet" version="1.2"><defs/><g id="8e563f5e15"><rect x="0" width="375" y="0" height="374.999991" style="fill:#ffffff;fill-opacity:1;stroke:none;"/><rect x="0" width="375" y="0" height="374.999991" style="fill:#f4f4f4;fill-opacity:1;stroke:none;"/><g style="fill:#5046e5;fill-opacity:1;"><g transform="translate(40.916011, 344.8331)"><path style="stroke:none" d="M 137.953125 0 L 37.34375 -285.578125 C 34.125 -294.660156 30.316406 -300.882812 25.921875 -304.25 C 21.523438 -307.625 14.789062 -309.3125 5.71875 -309.3125 L 0 -309.3125 L 0 -313.703125 L 120.828125 -313.703125 L 120.828125 -309.3125 L 110.28125 -309.3125 C 100.90625 -309.3125 94.019531 -308.066406 89.625 -305.578125 C 85.226562 -303.085938 83.03125 -298.765625 83.03125 -292.609375 C 83.03125 -286.753906 84.5 -279.875 87.4375 -271.96875 L 141.90625 -115.109375 C 152.164062 -86.109375 160.078125 -60.625 165.640625 -38.65625 C 168.859375 -49.789062 172.664062 -62.164062 177.0625 -75.78125 C 181.457031 -89.40625 185.703125 -102.515625 189.796875 -115.109375 L 239.890625 -268.453125 C 241.359375 -273.140625 242.53125 -277.238281 243.40625 -280.75 C 244.28125 -284.257812 244.71875 -287.484375 244.71875 -290.421875 C 244.71875 -297.453125 242.300781 -302.359375 237.46875 -305.140625 C 232.632812 -307.921875 225.238281 -309.3125 215.28125 -309.3125 L 189.359375 -309.3125 L 189.359375 -313.703125 L 296.5625 -313.703125 L 296.5625 -309.3125 L 280.75 -309.3125 C 272.257812 -309.3125 265.671875 -306.820312 260.984375 -301.84375 C 256.296875 -296.863281 251.898438 -288.078125 247.796875 -275.484375 L 156.84375 0 Z M 137.953125 0 "/></g></g><g style="fill:#5046e5;fill-opacity:1;"><g transform="translate(141.389791, 206.954943)"><path style="stroke:none" d="M 64.703125 0 L 17.515625 -133.953125 C 16.003906 -138.210938 14.21875 -141.128906 12.15625 -142.703125 C 10.09375 -144.285156 6.929688 -145.078125 2.671875 -145.078125 L 0 -145.078125 L 0 -147.140625 L 56.671875 -147.140625 L 56.671875 -145.078125 L 51.71875 -145.078125 C 47.320312 -145.078125 44.09375 -144.492188 42.03125 -143.328125 C 39.976562 -142.160156 38.953125 -140.132812 38.953125 -137.25 C 38.953125 -134.5 39.640625 -131.269531 41.015625 -127.5625 L 66.5625 -54 C 71.375 -40.394531 75.082031 -28.441406 77.6875 -18.140625 C 79.195312 -23.359375 80.984375 -29.160156 83.046875 -35.546875 C 85.109375 -41.929688 87.101562 -48.082031 89.03125 -54 L 112.515625 -125.90625 C 113.203125 -128.113281 113.75 -130.039062 114.15625 -131.6875 C 114.570312 -133.332031 114.78125 -134.84375 114.78125 -136.21875 C 114.78125 -139.507812 113.644531 -141.804688 111.375 -143.109375 C 109.113281 -144.421875 105.648438 -145.078125 100.984375 -145.078125 L 88.8125 -145.078125 L 88.8125 -147.140625 L 139.109375 -147.140625 L 139.109375 -145.078125 L 131.6875 -145.078125 C 127.695312 -145.078125 124.601562 -143.910156 122.40625 -141.578125 C 120.207031 -139.242188 118.148438 -135.125 116.234375 -129.21875 L 73.5625 0 Z M 64.703125 0 "/></g></g></g></svg>