<svg xmlns="http://www.w3.org/2000/svg" xmlns:xlink="http://www.w3.org/1999/xlink" width="500" zoomAndPan="magnify" viewBox="0 0 375 374.999991" height="500" preserveAspectRatio="xMidYMid meet" version="1.2"><defs/><g id="899a2a48b8"><g style="fill:#f4f4f4;fill-opacity:1;"><g transform="translate(40.922492, 344.374523)"><path style="stroke:none" d="M 137.953125 0 L 37.34375 -285.578125 C 34.125 -294.648438 30.316406 -300.867188 25.921875 -304.234375 C 21.523438 -307.609375 14.789062 -309.296875 5.71875 -309.296875 L 0 -309.296875 L 0 -313.6875 L 120.8125 -313.6875 L 120.8125 -309.296875 L 110.28125 -309.296875 C 100.90625 -309.296875 94.019531 -308.050781 89.625 -305.5625 C 85.226562 -303.070312 83.03125 -298.753906 83.03125 -292.609375 C 83.03125 -286.742188 84.492188 -279.859375 87.421875 -271.953125 L 141.90625 -115.109375 C 152.15625 -86.109375 160.0625 -60.625 165.625 -38.65625 C 168.851562 -49.789062 172.660156 -62.164062 177.046875 -75.78125 C 181.441406 -89.40625 185.691406 -102.515625 189.796875 -115.109375 L 239.875 -268.4375 C 241.34375 -273.125 242.515625 -277.222656 243.390625 -280.734375 C 244.273438 -284.253906 244.71875 -287.476562 244.71875 -290.40625 C 244.71875 -297.4375 242.300781 -302.34375 237.46875 -305.125 C 232.632812 -307.90625 225.238281 -309.296875 215.28125 -309.296875 L 189.359375 -309.296875 L 189.359375 -313.6875 L 296.5625 -313.6875 L 296.5625 -309.296875 L 280.734375 -309.296875 C 272.242188 -309.296875 265.65625 -306.804688 260.96875 -301.828125 C 256.28125 -296.847656 251.890625 -288.0625 247.796875 -275.46875 L 156.84375 0 Z M 137.953125 0 "/></g></g><g style="fill:#f4f4f4;fill-opacity:1;"><g transform="translate(141.389791, 206.954943)"><path style="stroke:none" d="M 64.703125 0 L 17.515625 -133.953125 C 16.003906 -138.210938 14.21875 -141.128906 12.15625 -142.703125 C 10.09375 -144.285156 6.929688 -145.078125 2.671875 -145.078125 L 0 -145.078125 L 0 -147.140625 L 56.671875 -147.140625 L 56.671875 -145.078125 L 51.71875 -145.078125 C 47.320312 -145.078125 44.09375 -144.492188 42.03125 -143.328125 C 39.976562 -142.160156 38.953125 -140.132812 38.953125 -137.25 C 38.953125 -134.5 39.640625 -131.269531 41.015625 -127.5625 L 66.5625 -54 C 71.375 -40.394531 75.082031 -28.441406 77.6875 -18.140625 C 79.195312 -23.359375 80.984375 -29.160156 83.046875 -35.546875 C 85.109375 -41.929688 87.101562 -48.082031 89.03125 -54 L 112.515625 -125.90625 C 113.203125 -128.113281 113.75 -130.039062 114.15625 -131.6875 C 114.570312 -133.332031 114.78125 -134.84375 114.78125 -136.21875 C 114.78125 -139.507812 113.644531 -141.804688 111.375 -143.109375 C 109.113281 -144.421875 105.648438 -145.078125 100.984375 -145.078125 L 88.8125 -145.078125 L 88.8125 -147.140625 L 139.109375 -147.140625 L 139.109375 -145.078125 L 131.6875 -145.078125 C 127.695312 -145.078125 124.601562 -143.910156 122.40625 -141.578125 C 120.207031 -139.242188 118.148438 -135.125 116.234375 -129.21875 L 73.5625 0 Z M 64.703125 0 "/></g></g></g></svg>